<svg width="600" height="400" viewBox="0 0 600 400" fill="none" xmlns="http://www.w3.org/2000/svg">
  <!-- Background gradient -->
  <defs>
    <linearGradient id="bgGradient" x1="0%" y1="0%" x2="100%" y2="100%">
      <stop offset="0%" style="stop-color:#2563eb;stop-opacity:0.1" />
      <stop offset="100%" style="stop-color:#7c3aed;stop-opacity:0.1" />
    </linearGradient>
  </defs>
  
  <!-- Background -->
  <rect width="600" height="400" fill="url(#bgGradient)"/>
  
  <!-- Code blocks -->
  <g transform="translate(50, 50)">
    <!-- Main code block -->
    <rect x="0" y="0" width="200" height="120" rx="8" fill="white" stroke="#e5e7eb" stroke-width="2"/>
    <rect x="0" y="0" width="200" height="30" rx="8" fill="#f3f4f6"/>
    
    <!-- Code lines -->
    <rect x="15" y="8" width="60" height="4" rx="2" fill="#3b82f6"/>
    <rect x="15" y="16" width="40" height="4" rx="2" fill="#10b981"/>
    <rect x="15" y="24" width="80" height="4" rx="2" fill="#f59e0b"/>
    
    <!-- More code lines -->
    <rect x="15" y="45" width="70" height="4" rx="2" fill="#6b7280"/>
    <rect x="15" y="53" width="50" height="4" rx="2" fill="#6b7280"/>
    <rect x="15" y="61" width="90" height="4" rx="2" fill="#6b7280"/>
    <rect x="15" y="69" width="65" height="4" rx="2" fill="#6b7280"/>
    <rect x="15" y="77" width="75" height="4" rx="2" fill="#6b7280"/>
    <rect x="15" y="85" width="55" height="4" rx="2" fill="#6b7280"/>
    <rect x="15" y="93" width="85" height="4" rx="2" fill="#6b7280"/>
    <rect x="15" y="101" width="60" height="4" rx="2" fill="#6b7280"/>
  </g>
  
  <!-- Floating elements -->
  <g transform="translate(300, 100)">
    <!-- Database icon -->
    <rect x="0" y="0" width="60" height="40" rx="4" fill="#2563eb" opacity="0.8"/>
    <rect x="5" y="5" width="50" height="8" rx="2" fill="white"/>
    <rect x="5" y="15" width="50" height="8" rx="2" fill="white"/>
    <rect x="5" y="25" width="50" height="8" rx="2" fill="white"/>
  </g>
  
  <g transform="translate(400, 200)">
    <!-- Mobile app icon -->
    <rect x="0" y="0" width="40" height="60" rx="6" fill="#7c3aed" opacity="0.8"/>
    <rect x="5" y="5" width="30" height="40" rx="2" fill="white"/>
    <circle cx="20" cy="50" r="3" fill="white"/>
  </g>
  
  <g transform="translate(150, 250)">
    <!-- Web browser icon -->
    <rect x="0" y="0" width="80" height="50" rx="4" fill="#10b981" opacity="0.8"/>
    <rect x="0" y="0" width="80" height="12" rx="4" fill="white"/>
    <circle cx="8" cy="6" r="2" fill="#ef4444"/>
    <circle cx="16" cy="6" r="2" fill="#f59e0b"/>
    <circle cx="24" cy="6" r="2" fill="#10b981"/>
    <rect x="5" y="20" width="70" height="4" rx="2" fill="white"/>
    <rect x="5" y="28" width="50" height="4" rx="2" fill="white"/>
    <rect x="5" y="36" width="60" height="4" rx="2" fill="white"/>
  </g>
  
  <!-- Connection lines -->
  <path d="M250 110 L300 120" stroke="#2563eb" stroke-width="2" stroke-dasharray="5,5"/>
  <path d="M360 140 L400 200" stroke="#7c3aed" stroke-width="2" stroke-dasharray="5,5"/>
  <path d="M230 200 L150 250" stroke="#10b981" stroke-width="2" stroke-dasharray="5,5"/>
  
  <!-- Floating dots -->
  <circle cx="100" cy="80" r="3" fill="#2563eb" opacity="0.6"/>
  <circle cx="500" cy="120" r="3" fill="#7c3aed" opacity="0.6"/>
  <circle cx="450" cy="300" r="3" fill="#10b981" opacity="0.6"/>
  <circle cx="150" cy="350" r="3" fill="#f59e0b" opacity="0.6"/>
</svg> 