<svg width="400" height="250" viewBox="0 0 400 250" fill="none" xmlns="http://www.w3.org/2000/svg">
  <!-- Background -->
  <rect width="400" height="250" fill="#f3f4f6"/>
  
  <!-- AI Brain Icon -->
  <g transform="translate(150, 75)">
    <circle cx="50" cy="50" r="40" fill="#2563eb" opacity="0.8"/>
    <path d="M30 50 Q50 30 70 50 Q50 70 30 50" fill="white"/>
    <circle cx="40" cy="40" r="3" fill="white"/>
    <circle cx="60" cy="40" r="3" fill="white"/>
    <circle cx="50" cy="60" r="3" fill="white"/>
    <circle cx="35" cy="55" r="2" fill="white"/>
    <circle cx="65" cy="55" r="2" fill="white"/>
  </g>
  
  <!-- Code Elements -->
  <g transform="translate(50, 150)">
    <rect x="0" y="0" width="80" height="4" rx="2" fill="#6b7280"/>
    <rect x="0" y="10" width="60" height="4" rx="2" fill="#6b7280"/>
    <rect x="0" y="20" width="70" height="4" rx="2" fill="#6b7280"/>
  </g>
  
  <g transform="translate(270, 150)">
    <rect x="0" y="0" width="80" height="4" rx="2" fill="#6b7280"/>
    <rect x="0" y="10" width="60" height="4" rx="2" fill="#6b7280"/>
    <rect x="0" y="20" width="70" height="4" rx="2" fill="#6b7280"/>
  </g>
  
  <!-- Title -->
  <text x="200" y="220" font-family="Inter, sans-serif" font-size="14" font-weight="600" text-anchor="middle" fill="#374151">
    AI-Powered Software Development
  </text>
</svg> 